<svg width="109" height="23" viewBox="0 0 109 23" fill="none" xmlns="http://www.w3.org/2000/svg">
<path d="M64.5999 18.6H67.2999V12.4C67.2999 10.4 66.7999 9.19999 66.0999 8.29999C65.0999 7.19999 63.5999 6.39999 61.9999 6.39999C60.6999 6.39999 59.5999 6.89999 58.6999 7.59999L58.0999 7.99999V7.49999V6.69999C58.0999 6.59999 57.9999 6.49999 57.8999 6.49999H55.3999V18.6H58.1999V11C58.1999 10.7 58.2999 10.4 58.4999 10.2C59.0999 9.59999 60.1999 8.89999 61.4999 8.89999C62.2999 8.89999 62.9999 9.19999 63.4999 9.59999C63.9999 10.1 64.2999 10.8 64.2999 12.1V18.4C64.3999 18.5 64.4999 18.6 64.5999 18.6Z" fill="black"/>
<path d="M37.8 14.7L37.6 14.6L37.4 14.7C36.8 15.4 35.7 16.1 34.4 16.1C33.3 16.1 32.3 15.7 31.7 15.1C31 14.4 30.6 13.5 30.6 12.5C30.6 11.5 31 10.5 31.7 9.9C32.4 9.2 33.3 8.8 34.3 8.8C35.4 8.8 36.4 9.3 37.1 10L37.3 10.1L37.5 10L39.3 8.4C38.2 7.1 36.3 6.2 34.3 6.2C30.5 6.2 27.7 9 27.7 12.5C27.7 16 30.5 18.8 34.3 18.8C36.6 18.8 38.3 18 39.7 16.3L37.8 14.7Z" fill="black"/>
<path fill-rule="evenodd" clip-rule="evenodd" d="M69 12.4C69 8.90001 71.7 6.10001 75.3 6.10001C78.9 6.10001 81.6 8.90001 81.6 12.4C81.6 15.9 78.9 18.7 75.3 18.7C71.7 18.7 69 15.9 69 12.4ZM75.3 16.1C76.3 16.1 77.2 15.7 77.8 15C78.4 14.3 78.8 13.4 78.8 12.4C78.8 11.4 78.4 10.5 77.8 9.80001C77.2 9.10001 76.3 8.70001 75.3 8.70001C74.3 8.70001 73.4 9.10001 72.8 9.80001C72.2 10.5 71.8 11.4 71.8 12.4C71.8 13.4 72.2 14.3 72.8 15C73.4 15.7 74.3 16.1 75.3 16.1Z" fill="black"/>
<path fill-rule="evenodd" clip-rule="evenodd" d="M50.5 17.6V17.1L50.1 17.4C49.1 18.3 48 18.6 46.8 18.7C45 18.7 43.3 17.9 42.2 16.7C41.3 15.6 40.7 14.2 40.7 12.6C40.7 9.1 43.3 6.5 46.6 6.5C47.9 6.5 49.2 7 50.1 7.7L50.5 8V6.7C50.5 6.6 50.6 6.5 50.7 6.5H53.2V18.6H50.5V17.6ZM44.6 10.1C43.9 10.8 43.6 11.7 43.6 12.6C43.6 13.6 44 14.5 44.7 15.1C45.3 15.7 46.2 16.1 47.2 16.1C48.5 16.1 49.6 15.5 50.3 14.7C50.4 14.5 50.5 14.3 50.5 14.1V12.4V10.9C50.5 10.85 50.475 10.8 50.45 10.75C50.425 10.7 50.4 10.65 50.4 10.6L50.2 10.4C49.5 9.5 48.4 9 47.1 9C46 9 45.1 9.4 44.6 10.1Z" fill="black"/>
<path fill-rule="evenodd" clip-rule="evenodd" d="M86.4 7.7C87.3 6.9 88.5 6.5 89.9 6.5C93.2 6.5 95.8 9.1 95.8 12.6C95.8 14.2 95.2 15.6 94.3 16.7C93.2 17.9 91.5 18.7 89.7 18.7C88.5 18.7 87.5 18.3 86.5 17.6L86.4 17.5L86.1 17.6L86 17.7V22.4C86 22.5 85.9 22.6 85.8 22.6H83.3V6.5H85.8C85.9 6.5 86 6.6 86 6.7V7.5V8L86.4 7.7ZM89.4 16.1C90.4 16.1 91.3 15.7 91.9 15.1C92.6 14.5 92.9 13.6 92.9 12.6C92.9 11.7 92.6 10.8 92 10.1C91.4 9.4 90.6 9 89.5 9C88.2 9 87.1 9.5 86.3 10.3C86.2 10.4 86.1 10.6 86.1 10.9V12.4V14.1C86.1 14.4 86.2 14.6 86.3 14.7C87 15.6 88.1 16.1 89.4 16.1Z" fill="black"/>
<path d="M105.9 6.69999C105.3 8.09999 102.7 13.6 102.7 13.6L102.5 14.1L98.9 6.89999C98.8 6.69999 98.6 6.59999 98.4 6.59999H95.8L101.1 17H101C101 17 100.4 18.2 99.8 19.6C99.3 20.7 98.7 21.9 98.4 22.5H100.8C101 22.5 101.2 22.4 101.3 22.2C102.2 20.2 106 12.1 107.9 8.19999C108.3 7.39999 108.6 6.79999 108.7 6.39999H106.1C106 6.49999 105.9 6.59999 105.9 6.69999Z" fill="black"/>
<path fill-rule="evenodd" clip-rule="evenodd" d="M16.3 2.1C15.8 0.8 14.6 0 13.3 0H9.6C8.3 0 7.1 0.8 6.6 2.1L0.2 18.6C0.1 19 0 19.4 0 19.8C0 21.6 1.4 23 3.2 23H19.6C20 23 20.4 22.9 20.8 22.8C22.4 22.1 23.2 20.3 22.6 18.6L16.3 2.1ZM8.4 5.8C8.5 5.5 8.8 5.3 9 5.2C9.6 5 10.2 5.2 10.4 5.8L15.3 18.2C15.4 18.3 15.4 18.5 15.4 18.6C15.4 19.2 14.9 19.7 14.3 19.7H4.5C4.4 19.7 4.2 19.7 4.1 19.6C3.6 19.4 3.3 18.8 3.5 18.2L8.4 5.8Z" fill="#00A13D"/>
</svg>
